<svg width="16" height="16" viewBox="0 0 16 16" fill="none" xmlns="http://www.w3.org/2000/svg">
<g clip-path="url(#clip0_1_157)">
<path d="M15.038 8.16557C15.038 7.64564 14.9914 7.14571 14.9047 6.66577H7.99896V9.5054H11.9451C11.7718 10.4186 11.2519 11.1918 10.472 11.7118V13.5582H12.8517C14.2381 12.2784 15.038 10.3986 15.038 8.16557Z" fill="#4285F4"/>
<path d="M7.99893 15.3313C9.97867 15.3313 11.6385 14.678 12.8516 13.5582L10.4719 11.7118C9.81869 12.1517 8.98547 12.4183 7.99893 12.4183C6.09252 12.4183 4.47273 11.1318 3.8928 9.39874H1.45312V11.2918C2.65963 13.6848 5.13264 15.3313 7.99893 15.3313Z" fill="#34A853"/>
<path d="M3.89281 9.39209C3.74616 8.95215 3.65951 8.48555 3.65951 7.99894C3.65951 7.51234 3.74616 7.04573 3.89281 6.60579V4.71271H1.45313C0.953194 5.69924 0.666565 6.81243 0.666565 7.99894C0.666565 9.18545 0.953194 10.2986 1.45313 11.2852L3.35288 9.80537L3.89281 9.39209Z" fill="#FBBC05"/>
<path d="M7.99893 3.58618C9.07879 3.58618 10.0387 3.95947 10.8052 4.67937L12.905 2.57965C11.6318 1.39314 9.97867 0.666565 7.99893 0.666565C5.13264 0.666565 2.65963 2.31302 1.45312 4.7127L3.8928 6.60579C4.47273 4.87268 6.09252 3.58618 7.99893 3.58618Z" fill="#EA4335"/>
</g>
<defs>
<clipPath id="clip0_1_157">
<rect width="15.9979" height="15.9979" fill="white"/>
</clipPath>
</defs>
</svg>
